<?xml version="1.0" standalone="no"?>
<!DOCTYPE svg PUBLIC "-//W3C//DTD SVG 20010904//EN"
 "http://www.w3.org/TR/2001/REC-SVG-20010904/DTD/svg10.dtd">
<svg version="1.0" xmlns="http://www.w3.org/2000/svg"
 width="700.000000pt" height="700.000000pt" viewBox="0 0 700.000000 700.000000"
 preserveAspectRatio="xMidYMid meet">
<metadata>
Created by potrace 1.14, written by Peter Selinger 2001-2017
</metadata>
<g transform="translate(0.000000,700.000000) scale(0.100000,-0.100000)"
fill="#000000" stroke="none">
<path d="M3476 3836 c-2964 -2964 -3166 -3168 -3195 -3229 -61 -127 -59 -254
5 -384 87 -179 327 -269 520 -195 28 10 80 40 115 65 35 26 586 569 1223 1207
l1160 1160 405 -406 c223 -222 412 -409 420 -413 7 -5 21 -6 31 -4 16 4 142
127 272 264 87 93 256 275 299 324 24 28 46 52 49 55 30 30 298 349 362 431
15 18 62 79 105 134 244 310 567 788 721 1065 14 25 44 79 67 120 23 41 76
140 116 220 69 134 91 181 180 375 109 240 264 691 313 915 25 112 75 366 80
410 3 30 9 69 11 85 35 217 37 603 4 790 -5 33 -12 69 -14 80 -12 71 -29 95
-69 95 -9 0 -1440 -1424 -3180 -3164z"/>
</g>
</svg>
